<?xml version="1.0" encoding="iso-8859-1"?>
<!-- Generator: Adobe Illustrator 19.0.1, SVG Export Plug-In . SVG Version: 6.00 Build 0)  -->
<svg version="1.1" xmlns="http://www.w3.org/2000/svg" xmlns:xlink="http://www.w3.org/1999/xlink" x="0px" y="0px"
	 viewBox="0 0 128 128" style="enable-background:new 0 0 128 128;" xml:space="preserve">
<g id="_x31_2">
	<path id="icon_11_" style="fill:#30e3ca;" d="M69.919,32.077H43.642V17.973h26.276V32.077z M69.919,35.834H43.642v7.273h26.276
		V35.834z M43.642,113.897h26.276V128H43.642V113.897z M43.642,110.14h26.276v-7.273H43.642V110.14z M69.919,48.178H43.642v50.3
		h26.276V48.178z M38.084,32.077H11.807V17.973h26.276V32.077z M38.084,35.834H11.807v7.273h26.276V35.834z M11.807,113.897h26.276
		V128H11.807V113.897z M11.807,110.14h26.276v-7.273H11.807V110.14z M38.084,48.178H11.807v50.3h26.276V48.178z M98.335,13.92
		l-25.935,4.224l-2.267-13.92L96.068,0L98.335,13.92z M98.939,17.628l-25.935,4.224l1.169,7.178l25.935-4.224L98.939,17.628z
		 M87.991,113.862l25.935-4.224l2.267,13.92l-25.935,4.224L87.991,113.862z M87.387,110.154l25.935-4.224l-1.169-7.178
		l-25.935,4.224L87.387,110.154z M100.924,29.812l-25.935,4.224l10.523,64.608l25.935-4.224L100.924,29.812z"/>
</g>
<g id="Layer_1">
</g>
</svg>
