<svg xmlns="http://www.w3.org/2000/svg" id="Layer_1" data-name="Layer 1" viewBox="0 0 128 128"><title>CAR </title><path d="M113.854,55.4h-8.1a1.75,1.75,0,0,0-1.75,1.75V58.9h-.5a1.753,1.753,0,0,0-1.679,1.254l-.789,2.672-6.395-16.7A8.969,8.969,0,0,0,86.31,40.4H79.521a38.509,38.509,0,0,0,1.627-4.985,50.416,50.416,0,0,0,1.45-13.2,1.751,1.751,0,0,0-1.222-1.631c-7.917-2.505-13.856-4.9-16.692-6.1a1.755,1.755,0,0,0-1.368,0c-2.836,1.2-8.775,3.6-16.692,6.1A1.751,1.751,0,0,0,45.4,22.208a50.412,50.412,0,0,0,1.45,13.2A38.509,38.509,0,0,0,48.479,40.4H41.69a8.969,8.969,0,0,0-8.327,5.729l-6.395,16.7-.789-2.672A1.753,1.753,0,0,0,24.5,58.9H24v-1.75a1.75,1.75,0,0,0-1.75-1.75h-8.1a1.751,1.751,0,0,0-1.75,1.75v6.375a1.75,1.75,0,0,0,1.75,1.75h8.1a1.742,1.742,0,0,0,1.524-.905l1.1,3.708L18.547,79.666c-.007.013-.01.032-.016.045a1.737,1.737,0,0,0-.2.793V96.519a5.184,5.184,0,0,0,4.864,5.159v5.756a6.237,6.237,0,0,0,6.23,6.229h6.885a6.236,6.236,0,0,0,6.229-6.229v-5.723H85.459v5.723a6.236,6.236,0,0,0,6.229,6.229h6.885a6.237,6.237,0,0,0,6.23-6.229v-5.756a5.184,5.184,0,0,0,4.864-5.159V80.5a1.724,1.724,0,0,0-.2-.805.318.318,0,0,0-.009-.033L103.13,68.074l1.1-3.708a1.743,1.743,0,0,0,1.524.905h8.1a1.75,1.75,0,0,0,1.75-1.75V57.146A1.751,1.751,0,0,0,113.854,55.4ZM20.5,61.771H15.9V58.9h4.6ZM98.992,86.307a4.052,4.052,0,1,1-4.053-4.053A4.057,4.057,0,0,1,98.992,86.307ZM23.031,78.754l4.762-8.73h72.414l4.762,8.73Zm54.64,3.5L76.647,85.24H51.353l-1.024-2.986ZM37.112,86.307a4.052,4.052,0,1,1-4.051-4.053A4.056,4.056,0,0,1,37.112,86.307ZM89.979,60.524H38.021L42.092,49.9H54.656a24.965,24.965,0,0,0,8.717,5.579,1.753,1.753,0,0,0,1.254,0A24.965,24.965,0,0,0,73.344,49.9H85.909ZM64,17.986c2.934,1.225,8.23,3.319,15.106,5.54a47.039,47.039,0,0,1-1.35,11.023c-2.2,8.667-6.829,14.52-13.756,17.408-6.927-2.888-11.553-8.741-13.756-17.408a47.028,47.028,0,0,1-1.35-11.023C55.77,21.305,61.066,19.211,64,17.986ZM36.631,47.376A5.451,5.451,0,0,1,41.69,43.9h8.444a27.878,27.878,0,0,0,1.57,2.5H41.69a2.929,2.929,0,0,0-2.723,1.875L33.843,61.648a1.749,1.749,0,0,0,1.634,2.376H92.523a1.749,1.749,0,0,0,1.634-2.376L89.035,48.272A2.935,2.935,0,0,0,86.31,46.4H76.3a27.878,27.878,0,0,0,1.57-2.5H86.31a5.451,5.451,0,0,1,5.059,3.48L98.7,66.524H29.3Zm2.41,60.058a2.733,2.733,0,0,1-2.729,2.729H29.427a2.733,2.733,0,0,1-2.73-2.729v-5.723H39.041Zm59.532,2.729H91.688a2.733,2.733,0,0,1-2.729-2.729v-5.723H101.3v5.723A2.733,2.733,0,0,1,98.573,110.163Zm7.594-13.644a1.694,1.694,0,0,1-1.692,1.692H23.525a1.694,1.694,0,0,1-1.692-1.692V82.254H26.7a7.552,7.552,0,1,0,12.724,0h7.207l1.818,5.3A1.749,1.749,0,0,0,50.1,88.74H77.9a1.749,1.749,0,0,0,1.656-1.183l1.818-5.3h7.207a7.552,7.552,0,1,0,12.724,0h4.865ZM112.1,61.771h-4.6V58.9h4.6Z" fill="#30e3ca"/><path d="M60.651,39.163a1.747,1.747,0,0,0,1.251.527h0a1.748,1.748,0,0,0,1.25-.525l8.36-8.537a1.75,1.75,0,1,0-2.5-2.449l-7.108,7.258L58.989,32.45a1.75,1.75,0,1,0-2.5,2.445Z" fill="#30e3ca"/></svg>