<svg xmlns="http://www.w3.org/2000/svg" viewBox="0 0 25 25"><defs><style>.cls-1{fill:#30e3ca;}</style></defs><g id="wardrobe"><path class="cls-1" d="M21.08,1H3.92A.92.92,0,0,0,3,1.92V21.5a.5.5,0,0,0,.5.5H4v1.5a.5.5,0,0,0,.5.5h16a.5.5,0,0,0,.5-.5V22h.5a.5.5,0,0,0,.5-.5V1.92A.92.92,0,0,0,21.08,1ZM4.5,21H4V18h8v3ZM4,17V14h8v3Zm9-3h8v3H13ZM21,2V13H13V2ZM4,2h8V13H4ZM20,23H5V22H20Zm1-2H13V18h8Z"/><path class="cls-1" d="M8.5,15h-1a.5.5,0,0,0,0,1h1a.5.5,0,0,0,0-1Z"/><path class="cls-1" d="M8.5,19h-1a.5.5,0,0,0,0,1h1a.5.5,0,0,0,0-1Z"/><path class="cls-1" d="M17.5,15h-1a.5.5,0,0,0,0,1h1a.5.5,0,0,0,0-1Z"/><path class="cls-1" d="M16.5,20h1a.5.5,0,0,0,0-1h-1a.5.5,0,0,0,0,1Z"/><path class="cls-1" d="M10.5,8a.5.5,0,0,0-.5.5v1a.5.5,0,0,0,1,0v-1A.5.5,0,0,0,10.5,8Z"/><path class="cls-1" d="M14.5,10a.5.5,0,0,0,.5-.5v-1a.5.5,0,0,0-1,0v1A.5.5,0,0,0,14.5,10Z"/></g></svg>